<svg width="672" height="436" viewBox="0 0 672 436" fill="none" xmlns="http://www.w3.org/2000/svg">
<path d="M547.1 266.71C550.83 268.33 559.93 268.13 559.94 268.13C559.95 268.13 557.94 262.13 557.81 261.81C555.81 257.63 549.49 250.73 544.35 251.42C543.499 251.56 542.688 251.878 541.968 252.352C541.248 252.826 540.635 253.446 540.17 254.172C539.705 254.898 539.398 255.714 539.269 256.566C539.14 257.419 539.191 258.289 539.42 259.12C540.28 262.68 543.93 265.32 547.1 266.71Z" fill="#0A0A0A"/>
<path d="M550.25 293.08C554.11 293.65 562.25 291.29 562.88 291.08C564.218 295.731 565.865 300.288 567.81 304.72C568.92 307.3 570.13 309.88 571.37 312.44C570.63 311.35 569.96 310.39 569.85 310.26C566.85 306.76 558.91 301.77 554.13 303.8C553.347 304.159 552.648 304.679 552.079 305.325C551.51 305.972 551.083 306.731 550.826 307.554C550.57 308.376 550.489 309.243 550.59 310.099C550.69 310.955 550.97 311.779 551.41 312.52C553.17 315.73 557.41 317.32 560.82 317.82C564.23 318.32 571.26 316.45 573.1 315.93C573.59 316.93 574.1 317.93 574.56 318.87C576.91 323.56 579.28 328.22 581.46 332.87C582.23 334.51 582.93 336.15 583.63 337.79C582.97 336.79 582.41 336.02 582.31 335.9C579.31 332.4 571.36 327.41 566.59 329.44C565.807 329.799 565.108 330.318 564.539 330.965C563.97 331.612 563.543 332.371 563.286 333.194C563.03 334.016 562.949 334.883 563.05 335.739C563.15 336.595 563.43 337.419 563.87 338.16C565.63 341.37 569.87 342.96 573.28 343.46C576.69 343.96 583.04 342.27 585.28 341.66C585.95 343.36 586.62 345.07 587.2 346.74C587.56 347.9 588 348.99 588.3 350.16C588.6 351.33 588.94 352.48 589.3 353.62C589.83 355.83 590.4 358.12 590.86 360.29C591.19 361.8 591.48 363.29 591.78 364.7C591.03 363.06 589.5 359.89 589.35 359.64C586.88 355.71 579.81 349.64 574.78 350.87C573.951 351.106 573.181 351.514 572.521 352.067C571.86 352.62 571.324 353.307 570.946 354.081C570.569 354.856 570.359 355.702 570.33 356.563C570.302 357.424 570.455 358.282 570.78 359.08C572.03 362.51 575.97 364.72 579.27 365.73C582.92 366.85 590.98 365.83 591.99 365.73C592.47 368.14 592.92 370.48 593.31 372.73C594.17 377.63 594.82 382.03 595.31 385.73H598.71C598.12 381.88 597.34 377.29 596.32 372.14C595.84 369.69 595.27 367.09 594.67 364.42C597.095 363.442 599.462 362.327 601.76 361.08C604.42 363.95 611.22 367.32 612.1 367.75C611.18 370.02 610.26 372.23 609.35 374.3C607.47 378.63 605.68 382.47 604.11 385.73H607.78C609.14 382.73 610.63 379.29 612.18 375.49C613.13 373.19 614.1 370.7 615.07 368.14C616.07 368.34 624.07 369.96 627.75 369.14C631.13 368.38 635.22 366.47 636.75 363.14C637.131 362.367 637.346 361.522 637.379 360.661C637.413 359.799 637.265 358.941 636.946 358.14C636.626 357.34 636.142 356.615 635.524 356.014C634.906 355.413 634.169 354.948 633.36 354.65C628.44 353 620.94 358.58 618.19 362.31C618.02 362.53 616.53 365.11 615.61 366.76C616 365.76 616.4 364.7 616.79 363.61C617.57 361.47 618.29 359.32 619.07 357L620.07 353.56C620.44 352.42 620.68 351.17 621 349.97C621.66 347.16 622.2 344.28 622.69 341.37C624.56 342.06 631.25 344.37 634.69 344.14C638.13 343.91 642.47 342.63 644.47 339.56C644.965 338.854 645.306 338.053 645.47 337.207C645.634 336.361 645.619 335.49 645.425 334.651C645.23 333.811 644.862 333.022 644.342 332.335C643.823 331.647 643.165 331.076 642.41 330.66C637.8 328.28 629.53 332.66 626.25 335.93C626.04 336.14 623.95 338.75 622.83 340.2C623.1 338.45 623.39 336.7 623.61 334.92C624.25 329.78 624.73 324.55 625.24 319.34C625.39 317.74 625.57 316.15 625.74 314.56C626.4 314.81 634.3 317.75 638.18 317.48C641.63 317.24 645.96 315.97 647.96 312.9C648.455 312.194 648.795 311.392 648.958 310.545C649.122 309.699 649.106 308.828 648.91 307.988C648.715 307.149 648.345 306.36 647.825 305.673C647.305 304.985 646.645 304.416 645.89 304C641.28 301.62 633.02 306 629.74 309.27C629.49 309.52 626.48 313.27 625.74 314.27C626.11 310.77 626.51 307.27 627.04 303.86C627.745 299.234 628.747 294.657 630.04 290.16C630.35 290.28 638.58 293.38 642.56 293.1C646.01 292.86 650.34 291.59 652.34 288.52C652.833 287.813 653.172 287.011 653.335 286.165C653.497 285.319 653.481 284.448 653.286 283.609C653.09 282.77 652.721 281.982 652.202 281.294C651.682 280.607 651.024 280.037 650.27 279.62C645.66 277.24 637.4 281.62 634.11 284.89C633.86 285.15 630.62 289.2 630.11 289.97C630.19 289.71 630.24 289.43 630.32 289.18C631.739 284.695 633.553 280.345 635.74 276.18C636.92 273.87 638.18 271.73 639.45 269.68C640.92 270.41 647.69 273.68 651.3 273.84C654.91 274 659.2 273.2 661.52 270.37C662.089 269.722 662.516 268.962 662.772 268.139C663.028 267.316 663.108 266.448 663.007 265.592C662.906 264.735 662.627 263.91 662.186 263.169C661.746 262.428 661.154 261.788 660.45 261.29C656.13 258.42 647.45 261.87 643.81 264.76C643.61 264.92 641.81 266.76 640.48 268.08C641.06 267.16 641.65 266.2 642.23 265.33C644.4 262.06 646.59 259.2 648.55 256.69C649.67 255.27 650.72 254 651.71 252.83C653.53 252.83 660.87 252.58 664.08 251.07C667.29 249.56 670.79 246.86 671.55 243.27C671.757 242.434 671.786 241.564 671.635 240.716C671.483 239.868 671.155 239.062 670.671 238.35C670.187 237.637 669.558 237.035 668.826 236.582C668.093 236.129 667.274 235.835 666.42 235.72C661.26 235.16 655.13 242.23 653.25 246.46C653.09 246.83 651.2 252.84 651.25 252.84H651.36C650.36 253.94 649.36 255.14 648.25 256.48C646.25 258.96 643.97 261.77 641.72 265.01C639.279 268.468 637.038 272.064 635.01 275.78C632.704 279.934 630.769 284.284 629.23 288.78C629.23 288.83 629.23 288.89 629.23 288.95C629.23 287.43 629.23 283.18 629.15 282.85C628.56 278.26 624.71 269.73 619.6 268.79C618.749 268.657 617.88 268.705 617.048 268.93C616.217 269.155 615.442 269.553 614.774 270.097C614.106 270.641 613.561 271.32 613.172 272.089C612.784 272.858 612.562 273.7 612.52 274.56C612.23 278.21 614.87 281.86 617.45 284.17C620.36 286.77 628.45 289.28 629.08 289.48C627.63 294.098 626.491 298.809 625.67 303.58C625.18 306.35 624.76 309.16 624.38 311.98C624.38 310.67 624.38 309.49 624.32 309.33C623.72 304.74 619.87 296.21 614.77 295.27C613.919 295.135 613.049 295.182 612.217 295.407C611.385 295.631 610.609 296.029 609.941 296.573C609.273 297.118 608.727 297.797 608.339 298.566C607.951 299.336 607.73 300.179 607.69 301.04C607.39 304.69 610.04 308.34 612.62 310.65C615.2 312.96 622.08 315.27 623.9 315.85C623.76 316.94 623.62 318.02 623.49 319.1C622.87 324.31 622.27 329.51 621.49 334.59C621.23 336.38 620.9 338.13 620.59 339.89C620.59 338.72 620.59 337.74 620.52 337.59C619.93 332.99 616.08 324.47 610.98 323.52C610.128 323.387 609.257 323.435 608.424 323.661C607.592 323.886 606.816 324.285 606.147 324.83C605.478 325.375 604.932 326.055 604.543 326.825C604.154 327.595 603.932 328.438 603.89 329.3C603.6 332.95 606.24 336.6 608.82 338.91C611.4 341.22 617.62 343.3 619.82 344C619.44 345.79 619.06 347.58 618.62 349.3C618.28 350.46 618.05 351.61 617.62 352.76C617.19 353.91 616.88 355.04 616.52 356.17C615.74 358.31 614.95 360.53 614.13 362.6C613.58 364.04 613.02 365.41 612.47 366.78C612.75 365.01 613.23 361.51 613.23 361.21C613.162 357.139 612.054 353.152 610.01 349.63C610.02 349.175 609.99 348.72 609.92 348.27C609.813 347.414 609.527 346.591 609.08 345.853C608.633 345.116 608.036 344.481 607.328 343.989C606.619 343.498 605.815 343.161 604.968 343.001C604.121 342.841 603.249 342.861 602.41 343.06C597.41 344.4 594.22 353.2 593.99 357.82C593.99 358.1 594.15 361.07 594.29 362.95C594.04 361.86 593.81 360.8 593.54 359.68C593.01 357.46 592.42 355.27 591.79 352.9C591.45 351.77 591.11 350.62 590.79 349.47C590.47 348.32 589.98 347.14 589.57 345.96C588.57 343.25 587.45 340.55 586.24 337.86C588.18 337.39 595.05 335.64 597.81 333.53C600.57 331.42 603.46 327.98 603.44 324.31C603.463 323.449 603.304 322.593 602.974 321.797C602.644 321.002 602.15 320.285 601.525 319.693C600.899 319.1 600.157 318.646 599.344 318.36C598.532 318.073 597.669 317.961 596.81 318.03C591.65 318.59 587.17 326.8 586.24 331.34C586.18 331.62 585.87 334.95 585.74 336.79C585 335.17 584.28 333.56 583.48 331.95C581.17 327.31 578.69 322.68 576.24 318.06C575.49 316.64 574.76 315.22 574.02 313.8C574.71 313.64 582.92 311.74 586.02 309.37C588.76 307.26 591.68 303.81 591.65 300.15C591.673 299.289 591.514 298.433 591.184 297.637C590.854 296.842 590.36 296.125 589.735 295.533C589.109 294.94 588.367 294.486 587.554 294.2C586.742 293.913 585.879 293.801 585.02 293.87C579.86 294.43 575.39 302.64 574.45 307.18C574.38 307.52 573.95 312.32 573.9 313.54C572.27 310.41 570.68 307.28 569.24 304.13C567.274 299.887 565.583 295.521 564.18 291.06C564.5 290.98 573.07 289.06 576.24 286.61C578.98 284.5 581.89 281.05 581.87 277.39C581.893 276.529 581.734 275.673 581.404 274.877C581.074 274.082 580.58 273.365 579.955 272.773C579.329 272.18 578.587 271.726 577.774 271.44C576.962 271.153 576.099 271.041 575.24 271.11C570.08 271.67 565.6 279.88 564.67 284.42C564.59 284.78 564.13 289.93 564.12 290.87C564.03 290.62 563.92 290.36 563.85 290.1C562.564 285.584 561.684 280.962 561.22 276.29C560.93 273.71 560.8 271.23 560.73 268.82C562.36 268.62 569.82 267.63 572.91 265.76C576 263.89 579.14 260.86 579.51 257.22C579.632 256.365 579.571 255.495 579.333 254.665C579.095 253.835 578.685 253.064 578.129 252.404C577.574 251.743 576.885 251.207 576.108 250.831C575.331 250.455 574.483 250.247 573.62 250.22C568.43 250.22 563.08 257.89 561.62 262.29C561.54 262.53 561.02 265.06 560.67 266.9C560.67 265.81 560.61 264.69 560.62 263.64C560.62 259.72 560.87 256.13 561.12 252.95C561.27 251.14 561.45 249.51 561.63 247.95C563.13 246.95 569.13 242.68 570.97 239.65C572.81 236.62 574.25 232.43 572.9 229.03C572.612 228.217 572.156 227.475 571.562 226.85C570.968 226.226 570.248 225.734 569.451 225.407C568.653 225.079 567.796 224.923 566.934 224.95C566.073 224.976 565.226 225.184 564.45 225.56C559.84 227.94 558.63 237.21 559.39 241.78C559.46 242.18 561.2 248.23 561.28 248.18L561.37 248.12C561.17 249.58 560.97 251.12 560.78 252.87C560.47 256.05 560.14 259.65 560.05 263.59C559.907 267.832 560.007 272.079 560.35 276.31C560.717 281.038 561.507 285.723 562.71 290.31C562.71 290.36 562.71 290.42 562.76 290.47C561.94 289.19 559.54 285.68 559.33 285.47C556.33 281.97 548.38 276.98 543.61 279.01C542.827 279.369 542.128 279.889 541.559 280.535C540.99 281.182 540.563 281.941 540.306 282.764C540.05 283.586 539.969 284.453 540.07 285.309C540.17 286.165 540.45 286.989 540.89 287.73C542.6 291 546.82 292.58 550.25 293.08Z" fill="#0A0A0A"/>
<path d="M639.2 268.71C639.28 268.76 640.86 262.66 640.91 262.26C641.55 257.68 640.09 248.44 635.42 246.18C634.634 245.826 633.783 245.642 632.921 245.639C632.059 245.636 631.207 245.815 630.419 246.164C629.631 246.514 628.925 247.025 628.348 247.665C627.771 248.305 627.336 249.06 627.07 249.88C625.81 253.32 627.4 257.54 629.28 260.45C631.49 263.86 639.2 268.71 639.2 268.71Z" fill="#0A0A0A"/>
<path d="M627.41 434.95H577.64L571.42 379.67H633.63L627.41 434.95Z" fill="white" stroke="#0A0A0A" stroke-linecap="round" stroke-linejoin="round"/>
<path d="M572.56 389.8L573.16 395.16H631.89L632.49 389.8H572.56Z" fill="#0A0A0A"/>
<path d="M630.56 406.94L631.16 401.58H573.88L574.49 406.94H630.56Z" fill="#0A0A0A"/>
<path d="M368.27 312.3H338.05V434.23H368.27V312.3Z" fill="#0A0A0A" stroke="#0A0A0A" stroke-linecap="round" stroke-linejoin="round"/>
<path d="M551.55 111.17H170.13V342.52H551.55V111.17Z" fill="#0A0A0A" stroke="#0A0A0A" stroke-linecap="round" stroke-linejoin="round"/>
<path d="M543.87 111.17H162.45V342.52H543.87V111.17Z" fill="#262626" stroke="#0A0A0A" stroke-linecap="round" stroke-linejoin="round"/>
<path d="M530.12 119.5H176.19V334.18H530.12V119.5Z" fill="white" stroke="#0A0A0A" stroke-linecap="round" stroke-linejoin="round"/>
<path d="M530.12 321.26H176.19V334.19H530.12V321.26Z" fill="white" stroke="#0A0A0A" stroke-linecap="round" stroke-linejoin="round"/>
<path d="M354.81 420.55L242.76 427.79V435.09H463.56V427.79L354.81 420.55Z" fill="#0A0A0A" stroke="#0A0A0A" stroke-linecap="round" stroke-linejoin="round"/>
<path d="M530.12 119.5H176.19V334.18H530.12V119.5Z" fill="white" stroke="#0A0A0A" stroke-linecap="round" stroke-linejoin="round"/>
<path d="M522.75 131.16H352.09V179.51H522.75V131.16Z" fill="white" stroke="#0A0A0A" stroke-linecap="round" stroke-linejoin="round"/>
<path d="M522.07 191.09H414.46V255.11H522.07V191.09Z" fill="white" stroke="#0A0A0A" stroke-linecap="round" stroke-linejoin="round"/>
<path d="M414.46 255.11L451.92 225.14L467.58 236.72L500.27 211.52L521.38 231.95V255.11H414.46Z" fill="#0A0A0A" stroke="#0A0A0A" stroke-linecap="round" stroke-linejoin="round"/>
<path d="M440.34 207.45C440.338 208.931 439.897 210.378 439.073 211.609C438.248 212.839 437.078 213.797 435.709 214.363C434.34 214.928 432.835 215.075 431.383 214.785C429.93 214.495 428.597 213.781 427.55 212.733C426.504 211.685 425.791 210.35 425.503 208.898C425.215 207.445 425.364 205.94 425.931 204.571C426.498 203.203 427.458 202.034 428.69 201.212C429.921 200.389 431.369 199.95 432.85 199.95C434.837 199.953 436.742 200.744 438.147 202.15C439.551 203.557 440.34 205.463 440.34 207.45Z" fill="#0A0A0A" stroke="#0A0A0A" stroke-linecap="round" stroke-linejoin="round"/>
<path d="M522.07 263.96H414.46V327.98H522.07V263.96Z" fill="white" stroke="#0A0A0A" stroke-linecap="round" stroke-linejoin="round"/>
<path d="M414.46 327.98L451.92 298.01L467.58 309.59L500.27 284.39L521.38 304.83V327.98H414.46Z" fill="#0A0A0A" stroke="#0A0A0A" stroke-linecap="round" stroke-linejoin="round"/>
<path d="M440.34 280.31C440.34 281.791 439.901 283.24 439.078 284.471C438.255 285.703 437.085 286.663 435.716 287.23C434.348 287.797 432.842 287.945 431.389 287.656C429.936 287.367 428.601 286.654 427.554 285.606C426.506 284.559 425.793 283.224 425.504 281.771C425.215 280.318 425.363 278.812 425.93 277.444C426.497 276.075 427.457 274.905 428.689 274.082C429.92 273.259 431.368 272.82 432.85 272.82C434.836 272.823 436.739 273.613 438.143 275.017C439.547 276.421 440.337 278.324 440.34 280.31Z" fill="#0A0A0A" stroke="#0A0A0A" stroke-linecap="round" stroke-linejoin="round"/>
<path d="M360.92 295.02L356.73 269.3H359.73L362.49 287.78L365.94 269.45H368.48L372.01 287.88L374.71 269.3H377.64L373.51 295.02H370.9L367.31 275.97L363.69 295.02H360.92Z" fill="#0A0A0A"/>
<path d="M381.5 270.86H406.66" stroke="#0A0A0A" stroke-miterlimit="10"/>
<path d="M381.5 277.8H406.66" stroke="#0A0A0A" stroke-miterlimit="10"/>
<path d="M381.5 284.74H406.66" stroke="#0A0A0A" stroke-miterlimit="10"/>
<path d="M381.5 291.68H406.66" stroke="#0A0A0A" stroke-miterlimit="10"/>
<path d="M381.5 298.62H406.66" stroke="#0A0A0A" stroke-miterlimit="10"/>
<path d="M381.5 305.56H406.66" stroke="#0A0A0A" stroke-miterlimit="10"/>
<path d="M381.5 312.5H406.66" stroke="#0A0A0A" stroke-miterlimit="10"/>
<path d="M381.5 319.44H406.66" stroke="#0A0A0A" stroke-miterlimit="10"/>
<path d="M381.5 326.38H406.66" stroke="#0A0A0A" stroke-miterlimit="10"/>
<path d="M366.48 192.11C359.607 192.1 352.887 194.14 347.18 197.97V119.5H176.18V334.18H347.18V255.72C351.689 258.732 356.841 260.646 362.223 261.309C367.604 261.972 373.067 261.366 378.172 259.539C383.278 257.712 387.884 254.715 391.623 250.788C395.362 246.861 398.13 242.112 399.704 236.924C401.279 231.735 401.616 226.249 400.69 220.906C399.763 215.564 397.599 210.512 394.369 206.156C391.14 201.8 386.935 198.261 382.092 195.822C377.249 193.383 371.902 192.112 366.48 192.11Z" fill="#0A0A0A" stroke="#0A0A0A" stroke-linecap="round" stroke-linejoin="round"/>
<path d="M193.98 152.27H270.94" stroke="white" stroke-width="2" stroke-linecap="round" stroke-linejoin="round"/>
<path d="M193.98 175.3H234.16" stroke="white" stroke-width="2" stroke-linecap="round" stroke-linejoin="round"/>
<path d="M193.98 162.63H231.44" stroke="#262626" stroke-width="2" stroke-linecap="round" stroke-linejoin="round"/>
<path d="M239.61 162.63H259.36" stroke="#262626" stroke-width="2" stroke-linecap="round" stroke-linejoin="round"/>
<path d="M270.94 162.63H290.69" stroke="#262626" stroke-width="2" stroke-linecap="round" stroke-linejoin="round"/>
<path d="M193.98 185.09H231.44" stroke="white" stroke-width="2" stroke-linecap="round" stroke-linejoin="round"/>
<path d="M239.61 185.09H259.36" stroke="white" stroke-width="2" stroke-linecap="round" stroke-linejoin="round"/>
<path d="M270.94 185.09H290.69" stroke="#262626" stroke-width="2" stroke-linecap="round" stroke-linejoin="round"/>
<path d="M193.98 207.54H231.44" stroke="white" stroke-width="2" stroke-linecap="round" stroke-linejoin="round"/>
<path d="M239.61 207.54H259.36" stroke="#262626" stroke-width="2" stroke-linecap="round" stroke-linejoin="round"/>
<path d="M270.94 207.54H290.69" stroke="white" stroke-width="2" stroke-linecap="round" stroke-linejoin="round"/>
<path d="M217.13 217.33H245.62" stroke="white" stroke-width="2" stroke-linecap="round" stroke-linejoin="round"/>
<path d="M251.84 217.33H266.86" stroke="white" stroke-width="2" stroke-linecap="round" stroke-linejoin="round"/>
<path d="M275.66 217.33H290.69" stroke="white" stroke-width="2" stroke-linecap="round" stroke-linejoin="round"/>
<path d="M217.13 229.42H245.62" stroke="white" stroke-width="2" stroke-linecap="round" stroke-linejoin="round"/>
<path d="M251.84 229.42H266.86" stroke="white" stroke-width="2" stroke-linecap="round" stroke-linejoin="round"/>
<path d="M275.66 229.42H290.69" stroke="white" stroke-width="2" stroke-linecap="round" stroke-linejoin="round"/>
<path d="M193.98 242.66H270.94" stroke="#262626" stroke-width="2" stroke-linecap="round" stroke-linejoin="round"/>
<path d="M193.98 265.69H234.16" stroke="white" stroke-width="2" stroke-linecap="round" stroke-linejoin="round"/>
<path d="M193.98 253.02H231.44" stroke="#262626" stroke-width="2" stroke-linecap="round" stroke-linejoin="round"/>
<path d="M239.61 253.02H259.36" stroke="white" stroke-width="2" stroke-linecap="round" stroke-linejoin="round"/>
<path d="M270.94 253.02H290.69" stroke="#262626" stroke-width="2" stroke-linecap="round" stroke-linejoin="round"/>
<path d="M193.98 275.48H231.44" stroke="#262626" stroke-width="2" stroke-linecap="round" stroke-linejoin="round"/>
<path d="M239.61 275.48H259.36" stroke="#262626" stroke-width="2" stroke-linecap="round" stroke-linejoin="round"/>
<path d="M270.94 275.48H290.69" stroke="white" stroke-width="2" stroke-linecap="round" stroke-linejoin="round"/>
<path d="M193.98 297.93H231.44" stroke="white" stroke-width="2" stroke-linecap="round" stroke-linejoin="round"/>
<path d="M239.61 297.93H259.36" stroke="#262626" stroke-width="2" stroke-linecap="round" stroke-linejoin="round"/>
<path d="M270.94 297.93H290.69" stroke="#262626" stroke-width="2" stroke-linecap="round" stroke-linejoin="round"/>
<path d="M217.13 307.72H245.62" stroke="white" stroke-width="2" stroke-linecap="round" stroke-linejoin="round"/>
<path d="M251.84 307.72H266.86" stroke="white" stroke-width="2" stroke-linecap="round" stroke-linejoin="round"/>
<path d="M275.66 307.72H290.69" stroke="white" stroke-width="2" stroke-linecap="round" stroke-linejoin="round"/>
<path d="M217.13 319.81H245.62" stroke="white" stroke-width="2" stroke-linecap="round" stroke-linejoin="round"/>
<path d="M251.84 319.81H266.86" stroke="white" stroke-width="2" stroke-linecap="round" stroke-linejoin="round"/>
<path d="M275.66 319.81H290.69" stroke="white" stroke-width="2" stroke-linecap="round" stroke-linejoin="round"/>
<path d="M196.08 138.45L203.31 134.72V135.8L197.22 138.86L203.31 141.91V142.99L196.08 139.26V138.45Z" fill="white" stroke="white" stroke-miterlimit="10"/>
<path d="M207.64 143.65L212.01 132.35H213.01L208.65 143.65H207.64Z" fill="white" stroke="white" stroke-miterlimit="10"/>
<path d="M224.58 139.32L217.35 143.03V141.95L223.49 138.9L217.35 135.84V134.76L224.58 138.47V139.32Z" fill="white" stroke="white" stroke-miterlimit="10"/>
<path d="M299.73 70.26L269.38 116.28" stroke="#0A0A0A" stroke-miterlimit="10" stroke-dasharray="5 5"/>
<path d="M348.01 45.7201V35.2701L337.61 34.1101C337.024 31.9304 336.149 29.8386 335.01 27.8901L341.6 19.6401L334.21 12.2501L326.01 18.8201C324.07 17.6782 321.984 16.8037 319.81 16.2201L318.64 5.7301H308.22L307.06 16.1701C304.881 16.7394 302.788 17.6005 300.84 18.7301L292.6 12.1401L285.21 19.5301L291.77 27.7401C290.628 29.6803 289.754 31.7658 289.17 33.9401L278.69 35.1101V45.5601L289.12 46.7201C289.694 48.8978 290.555 50.9895 291.68 52.9401L285.09 61.1801L292.48 68.5701L300.69 62.0101C302.63 63.152 304.716 64.0266 306.89 64.6101L308.06 75.0901H318.51L319.67 64.6601C321.848 64.0864 323.939 63.2255 325.89 62.1001L334.13 68.6901L341.52 61.3001L335.01 53.0901C336.152 51.1499 337.026 49.0644 337.61 46.8901L348.01 45.7201ZM313.33 52.8901C310.861 52.8842 308.45 52.1462 306.4 50.7695C304.351 49.3928 302.756 47.4392 301.818 45.156C300.879 42.8727 300.638 40.3623 301.126 37.9423C301.615 35.5223 302.81 33.3015 304.56 31.5607C306.311 29.82 308.538 28.6375 310.961 28.1629C313.384 27.6883 315.893 27.9429 318.171 28.8945C320.448 29.8461 322.393 31.4519 323.758 33.5089C325.123 35.5658 325.848 37.9814 325.84 40.4501C325.829 43.7531 324.51 46.9171 322.171 49.2489C319.831 51.5808 316.663 52.8901 313.36 52.8901H313.33Z" fill="#262626" stroke="#0A0A0A" stroke-linecap="round" stroke-linejoin="round"/>
<path d="M389.12 24.74L388.01 17.82L381.01 18.21C380.395 16.8306 379.594 15.5419 378.63 14.38L382.01 8.19005L376.3 4.11005L371.59 9.37005C370.18 8.83574 368.702 8.49921 367.2 8.37005L365.26 1.55005L358.34 2.71005L358.73 9.71005C357.348 10.3268 356.057 11.1273 354.89 12.09L348.71 8.64005L344.63 14.35L349.89 19.06C349.355 20.4702 349.019 21.9476 348.89 23.45L342.01 25.45L343.17 32.37L350.17 31.98C350.786 33.3614 351.587 34.6531 352.55 35.82L349.1 42.0001L354.81 46.08L359.52 40.8201C360.93 41.3544 362.407 41.6909 363.91 41.8201L365.85 48.6401L372.82 47.4501L372.43 40.4501C373.809 39.8355 375.098 39.0347 376.26 38.07L382.45 41.4501L386.53 35.7401L381.27 31.0301C381.804 29.6199 382.141 28.1425 382.27 26.64L389.12 24.74ZM366.95 33.33C365.317 33.6019 363.641 33.3837 362.132 32.7029C360.624 32.0221 359.351 30.9094 358.474 29.5054C357.598 28.1013 357.158 26.469 357.209 24.8148C357.26 23.1605 357.801 21.5586 358.762 20.2114C359.724 18.8643 361.063 17.8324 362.611 17.2463C364.158 16.6601 365.845 16.5459 367.458 16.9182C369.07 17.2905 370.536 18.1326 371.671 19.3379C372.805 20.5432 373.556 22.0578 373.83 23.6901C374.194 25.8805 373.674 28.1261 372.384 29.9336C371.094 31.7411 369.14 32.9627 366.95 33.33Z" fill="#0A0A0A" stroke="#0A0A0A" stroke-miterlimit="10"/>
<path d="M210.57 70.74L211.06 73.2" stroke="#0A0A0A" stroke-miterlimit="10"/>
<path d="M211.98 77.8101L218.85 112.39" stroke="#0A0A0A" stroke-miterlimit="10" stroke-dasharray="4.7 4.7"/>
<path d="M219.31 114.69L219.8 117.15" stroke="#0A0A0A" stroke-miterlimit="10"/>
<path d="M217.61 66.45H231.73V13.88H217.61V66.45Z" fill="#262626" stroke="#0A0A0A" stroke-linecap="round" stroke-linejoin="round"/>
<path d="M198.78 66.45H212.9V25.65H198.78V66.45Z" fill="#0A0A0A" stroke="#0A0A0A" stroke-miterlimit="10"/>
<path d="M179.96 66.45H194.08V35.07H179.96V66.45Z" fill="#262626" stroke="#0A0A0A" stroke-linecap="round" stroke-linejoin="round"/>
<path d="M161.12 66.45H175.24V42.91H161.12V66.45Z" fill="#0A0A0A" stroke="#0A0A0A" stroke-miterlimit="10"/>
<path d="M167.73 39.44L166.35 37.63L180.79 26.64L187.95 29.03L199.77 16.3L206.72 18.42L219.33 3.97L224.67 7.42L230.21 3.5L231.53 5.36L224.73 10.17L219.75 6.95L207.47 21.02L200.47 18.89L188.62 31.65L181.21 29.18L167.73 39.44Z" fill="#0A0A0A"/>
<path d="M232.68 9.68L237.14 0L226.52 0.980001L232.68 9.68Z" fill="#0A0A0A"/>
<path d="M99.8801 68.88L101.96 70.26" stroke="#0A0A0A" stroke-miterlimit="10"/>
<path d="M106.14 73.02L170.95 115.87" stroke="#0A0A0A" stroke-miterlimit="10" stroke-dasharray="5.01 5.01"/>
<path d="M173.04 117.25L175.12 118.63" stroke="#0A0A0A" stroke-miterlimit="10"/>
<path d="M32.5101 26H105.11C106.802 26 108.425 26.6722 109.621 27.8687C110.818 29.0651 111.49 30.6879 111.49 32.38V82.03H26.1401V32.37C26.1428 30.6814 26.8148 29.0627 28.0088 27.8687C29.2028 26.6746 30.8215 26.0026 32.5101 26Z" fill="white" stroke="#0A0A0A" stroke-linecap="round" stroke-linejoin="round"/>
<path d="M47.6702 48.51H88.1002" stroke="#0A0A0A" stroke-linecap="round" stroke-linejoin="round"/>
<path d="M47.6702 55.04H88.1002" stroke="#0A0A0A" stroke-linecap="round" stroke-linejoin="round"/>
<path d="M47.6702 61.5601H88.1002" stroke="#0A0A0A" stroke-linecap="round" stroke-linejoin="round"/>
<path d="M47.6702 68.08H88.1002" stroke="#0A0A0A" stroke-linecap="round" stroke-linejoin="round"/>
<path d="M111.49 34.84V31.22C111.49 29.8356 110.94 28.5078 109.961 27.5289C108.982 26.55 107.655 26 106.27 26H31.3501C30.6651 26 29.9868 26.1351 29.3541 26.3975C28.7213 26.66 28.1465 27.0447 27.6626 27.5295C27.1787 28.0144 26.7951 28.5899 26.5339 29.2231C26.2726 29.8564 26.1388 30.535 26.1401 31.22V34.84H111.49Z" fill="#262626" stroke="#0A0A0A" stroke-linecap="round" stroke-linejoin="round"/>
<path d="M96.89 30.65C96.89 30.3885 96.8123 30.1329 96.6668 29.9157C96.5213 29.6984 96.3146 29.5292 96.0728 29.4296C95.831 29.33 95.5651 29.3044 95.3088 29.3562C95.0525 29.4079 94.8173 29.5346 94.6331 29.7203C94.4489 29.9059 94.324 30.142 94.2742 30.3987C94.2244 30.6554 94.2519 30.9211 94.3534 31.1621C94.4548 31.4032 94.6256 31.6086 94.8439 31.7525C95.0623 31.8963 95.3185 31.972 95.58 31.97C95.9284 31.9674 96.2615 31.8272 96.5069 31.5799C96.7523 31.3326 96.89 30.9984 96.89 30.65Z" fill="#0A0A0A" stroke="#0A0A0A" stroke-linecap="round" stroke-linejoin="round"/>
<path d="M102.16 30.65C102.16 30.3889 102.083 30.1337 101.938 29.9166C101.793 29.6995 101.586 29.5303 101.345 29.4304C101.104 29.3305 100.839 29.3044 100.582 29.3553C100.326 29.4063 100.091 29.532 99.9066 29.7166C99.722 29.9012 99.5963 30.1364 99.5454 30.3924C99.4945 30.6485 99.5206 30.9139 99.6205 31.1551C99.7204 31.3963 99.8896 31.6025 100.107 31.7475C100.324 31.8925 100.579 31.97 100.84 31.97C101.19 31.97 101.526 31.8309 101.773 31.5833C102.021 31.3358 102.16 31 102.16 30.65Z" fill="#0A0A0A" stroke="#0A0A0A" stroke-linecap="round" stroke-linejoin="round"/>
<path d="M107.43 30.65C107.43 30.3889 107.353 30.1337 107.208 29.9166C107.063 29.6995 106.856 29.5303 106.615 29.4304C106.374 29.3305 106.109 29.3044 105.853 29.3553C105.596 29.4063 105.361 29.532 105.177 29.7166C104.992 29.9012 104.866 30.1364 104.815 30.3924C104.764 30.6485 104.791 30.9139 104.891 31.1551C104.99 31.3963 105.16 31.6025 105.377 31.7475C105.594 31.8925 105.849 31.97 106.11 31.97C106.46 31.97 106.796 31.8309 107.043 31.5833C107.291 31.3358 107.43 31 107.43 30.65Z" fill="#0A0A0A" stroke="#0A0A0A" stroke-linecap="round" stroke-linejoin="round"/>
<path d="M15.3101 93.94C14.9708 93.658 14.6913 93.311 14.488 92.9195C14.2848 92.5279 14.1618 92.0997 14.1264 91.66C14.091 91.2202 14.1439 90.7778 14.2819 90.3588C14.4199 89.9398 14.6403 89.5526 14.9301 89.22L38.9301 61.71L42.5901 64.71L20.0101 93.45C19.737 93.7954 19.3975 94.0828 19.0117 94.295C18.6258 94.5073 18.2014 94.6401 17.7634 94.6858C17.3254 94.7315 16.8827 94.689 16.4613 94.5609C16.04 94.4328 15.6486 94.2217 15.3101 93.94Z" fill="#0A0A0A" stroke="#0A0A0A" stroke-linejoin="round"/>
<path d="M32.5301 69.03L14.9301 89.22C14.6523 89.5536 14.443 89.9386 14.314 90.353C14.1851 90.7675 14.139 91.2033 14.1785 91.6356C14.218 92.0678 14.3422 92.4881 14.544 92.8723C14.7459 93.2566 15.0215 93.5973 15.3551 93.875C15.6886 94.1528 16.0736 94.3621 16.4881 94.4911C16.9025 94.62 17.3383 94.6661 17.7706 94.6266C18.2028 94.5871 18.6231 94.4629 19.0073 94.261C19.3916 94.0592 19.7323 93.7836 20.0101 93.45L36.6601 72.27L32.5301 69.03Z" fill="white" stroke="#0A0A0A" stroke-linejoin="round"/>
<path d="M58.9002 41.3C56.5971 39.3926 53.7801 38.211 50.8054 37.9046C47.8307 37.5981 44.832 38.1806 42.1884 39.5784C39.5448 40.9763 37.3751 43.1266 35.9535 45.7575C34.532 48.3884 33.9226 51.3818 34.2023 54.3591C34.482 57.3364 35.6382 60.1639 37.5249 62.4841C39.4115 64.8042 41.9437 66.5129 44.8014 67.3939C47.6591 68.2749 50.7138 68.2887 53.5794 67.4337C56.4449 66.5786 58.9926 64.893 60.9002 62.59C62.1668 61.0608 63.1199 59.2971 63.7049 57.3995C64.2899 55.502 64.4954 53.5078 64.3097 51.5308C64.124 49.5538 63.5507 47.6328 62.6225 45.8774C61.6943 44.122 60.4295 42.5666 58.9002 41.3ZM41.0102 62.91C39.0393 61.2774 37.5969 59.0969 36.8652 56.6444C36.1336 54.192 36.1456 51.5776 36.8998 49.132C37.654 46.6863 39.1164 44.5193 41.1022 42.9048C43.088 41.2903 45.508 40.3009 48.056 40.0618C50.6041 39.8227 53.1659 40.3445 55.4174 41.5613C57.6689 42.7781 59.5091 44.6352 60.7051 46.8978C61.9012 49.1604 62.3995 51.7268 62.1369 54.2726C61.8744 56.8184 60.8628 59.2292 59.2302 61.2C58.1461 62.5087 56.8149 63.591 55.3126 64.3851C53.8103 65.1793 52.1662 65.6698 50.4743 65.8286C48.7824 65.9874 47.0758 65.8113 45.452 65.3106C43.8281 64.8098 42.3188 63.9941 41.0102 62.91Z" fill="#0A0A0A" stroke="#0A0A0A" stroke-linejoin="round"/>
<path d="M70.02 187.66H72.52" stroke="#0A0A0A" stroke-miterlimit="10"/>
<path d="M77.54 187.66H165.21" stroke="#0A0A0A" stroke-miterlimit="10" stroke-dasharray="5.01 5.01"/>
<path d="M167.72 187.66H170.22" stroke="#0A0A0A" stroke-miterlimit="10"/>
<path d="M28.8899 150.45H85.4199" stroke="#0A0A0A" stroke-linecap="round" stroke-linejoin="round"/>
<path d="M57.1599 178.3V150.45" stroke="#0A0A0A" stroke-linecap="round" stroke-linejoin="round"/>
<path d="M12.3599 157.38V192.61" stroke="#0A0A0A" stroke-linecap="round" stroke-linejoin="round"/>
<path d="M66.76 196.31H117.95V227.27" stroke="#0A0A0A" stroke-linecap="round" stroke-linejoin="round"/>
<path d="M85.4199 196.84V226.71" stroke="#0A0A0A" stroke-linecap="round" stroke-linejoin="round"/>
<path d="M39.02 138.71H2.21997V163.78H39.02V138.71Z" fill="#0A0A0A" stroke="#0A0A0A" stroke-miterlimit="10"/>
<path d="M108.62 138.71H71.8201V163.78H108.62V138.71Z" fill="#262626" stroke="#0A0A0A" stroke-linecap="round" stroke-linejoin="round"/>
<path d="M97.53 219.24H73.95V235.3H97.53V219.24Z" fill="#262626" stroke="#0A0A0A" stroke-linecap="round" stroke-linejoin="round"/>
<path d="M25.54 184.58H1.95996V200.64H25.54V184.58Z" fill="white" stroke="#0A0A0A" stroke-linecap="round" stroke-linejoin="round"/>
<path d="M128.47 219.24H104.89V235.3H128.47V219.24Z" fill="#0A0A0A" stroke="#0A0A0A" stroke-miterlimit="10"/>
<path d="M57.1512 178.295L38.6038 196.843L57.1512 215.39L75.6986 196.843L57.1512 178.295Z" fill="#262626" stroke="#0A0A0A" stroke-linecap="round" stroke-linejoin="round"/>
<path d="M125.37 306.44L127.74 305.63" stroke="#0A0A0A" stroke-miterlimit="10"/>
<path d="M132.49 304.01L168.09 291.86" stroke="#0A0A0A" stroke-miterlimit="10" stroke-dasharray="5.02 5.02"/>
<path d="M170.46 291.05L172.83 290.24" stroke="#0A0A0A" stroke-miterlimit="10"/>
<path d="M119.76 290.89H7.05005V317.36H119.76V290.89Z" fill="white" stroke="#0A0A0A" stroke-linecap="round" stroke-linejoin="round"/>
<path d="M119.38 323.7H60.47V358.75H119.38V323.7Z" fill="white" stroke="#0A0A0A" stroke-linecap="round" stroke-linejoin="round"/>
<path d="M60.47 358.75L80.98 342.35L89.55 348.69L107.45 334.89L119.01 346.08V358.75H60.47Z" fill="#0A0A0A" stroke="#0A0A0A" stroke-linecap="round" stroke-linejoin="round"/>
<path d="M70.5399 336.75C72.8043 336.75 74.6399 334.914 74.6399 332.65C74.6399 330.386 72.8043 328.55 70.5399 328.55C68.2756 328.55 66.4399 330.386 66.4399 332.65C66.4399 334.914 68.2756 336.75 70.5399 336.75Z" fill="#0A0A0A" stroke="#0A0A0A" stroke-linecap="round" stroke-linejoin="round"/>
<path d="M119.38 363.6H60.47V398.65H119.38V363.6Z" fill="white" stroke="#0A0A0A" stroke-linecap="round" stroke-linejoin="round"/>
<path d="M60.47 398.65L80.98 382.24L89.55 388.58L107.45 374.78L119.01 385.97V398.65H60.47Z" fill="#0A0A0A" stroke="#0A0A0A" stroke-linecap="round" stroke-linejoin="round"/>
<path d="M70.5399 376.65C72.8043 376.65 74.6399 374.814 74.6399 372.55C74.6399 370.286 72.8043 368.45 70.5399 368.45C68.2756 368.45 66.4399 370.286 66.4399 372.55C66.4399 374.814 68.2756 376.65 70.5399 376.65Z" fill="#0A0A0A" stroke="#0A0A0A" stroke-linecap="round" stroke-linejoin="round"/>
<path d="M8.76001 326.34H53.54" stroke="#0A0A0A" stroke-miterlimit="10"/>
<path d="M8.76001 336.29H53.54" stroke="#0A0A0A" stroke-miterlimit="10"/>
<path d="M8.76001 346.24H53.54" stroke="#0A0A0A" stroke-miterlimit="10"/>
<path d="M8.76001 356.19H53.54" stroke="#0A0A0A" stroke-miterlimit="10"/>
<path d="M8.76001 366.14H53.54" stroke="#0A0A0A" stroke-miterlimit="10"/>
<path d="M8.76001 376.09H53.54" stroke="#0A0A0A" stroke-miterlimit="10"/>
<path d="M8.76001 386.04H53.54" stroke="#0A0A0A" stroke-miterlimit="10"/>
<path d="M8.76001 395.99H53.54" stroke="#0A0A0A" stroke-miterlimit="10"/>
<path d="M32.97 435.09H668" stroke="#0A0A0A" stroke-miterlimit="10"/>
<path d="M0 435.09H17.09" stroke="#0A0A0A" stroke-miterlimit="10"/>
</svg>
