<svg width="40" height="40" viewBox="0 0 40 40" fill="none" xmlns="http://www.w3.org/2000/svg">
<path d="M18.5686 6.66665C15.9312 6.66665 14.5894 6.94791 13.3545 7.60835C12.3058 8.16923 11.5027 8.97235 10.9418 10.0211C10.2813 11.256 10.0001 12.5978 10.0001 15.2352V24.7648C10.0001 27.4021 10.2813 28.744 10.9418 29.9788C11.5027 31.0276 12.3058 31.8308 13.3545 32.3916C14.5894 33.052 15.9312 33.3333 18.5686 33.3333H21.4316C24.0689 33.3333 25.4107 33.052 26.6456 32.3916C27.6944 31.8308 28.4976 31.0276 29.0584 29.9788C29.7187 28.744 30.0001 27.4021 30.0001 24.7648V15.2352C30.0001 12.5978 29.7187 11.256 29.0584 10.0211C28.4976 8.97235 27.6944 8.16923 26.6456 7.60835C25.4107 6.94791 24.0689 6.66665 21.4316 6.66665H18.5686ZM18.5686 3.33331H21.4316C24.7881 3.33331 26.5881 3.79745 28.2176 4.66898C29.8472 5.54051 31.1262 6.81946 31.9977 8.44908C32.8692 10.0787 33.3334 11.8787 33.3334 15.2352V24.7648C33.3334 28.1213 32.8692 29.9213 31.9977 31.5508C31.1262 33.1805 29.8472 34.4595 28.2176 35.331C26.5881 36.2025 24.7881 36.6666 21.4316 36.6666H18.5686C15.2121 36.6666 13.4121 36.2025 11.7825 35.331C10.1529 34.4595 8.87395 33.1805 8.00241 31.5508C7.13088 29.9213 6.66675 28.1213 6.66675 24.7648V15.2352C6.66675 11.8787 7.13088 10.0787 8.00241 8.44908C8.87395 6.81946 10.1529 5.54051 11.7825 4.66898C13.4121 3.79745 15.2121 3.33331 18.5686 3.33331ZM18.3334 9.99998H21.6667V18.3333H18.3334V9.99998Z" fill="#0A0A0A"/>
</svg>
